<?xml version="1.0" encoding="UTF-8"?>
<svg width="300px" height="164px" viewBox="0 0 300 164" version="1.1" xmlns="http://www.w3.org/2000/svg" xmlns:xlink="http://www.w3.org/1999/xlink">
    <defs>
        <path d="M61.242,146.24 C62.6713405,146.24 64.189992,146.061335 65.798,145.704 C67.406008,145.346665 68.8576602,144.654338 70.153,143.627 C71.4483398,142.599662 72.5203291,141.170342 73.369,139.339 C74.2176709,137.507658 74.642,135.118015 74.642,132.17 L74.642,130.83 C74.642,127.881985 74.2176709,125.492342 73.369,123.661 C72.5203291,121.829658 71.4483398,120.400338 70.153,119.373 C68.8576602,118.345662 67.406008,117.653335 65.798,117.296 C64.189992,116.938665 62.6713405,116.76 61.242,116.76 L47.708,116.76 L47.708,146.24 L61.242,146.24 Z M47.708,202.52 L26,202.52 L26,98 L60.304,98 C64.5920214,98 68.8799786,98.3796629 73.168,99.139 C77.4560214,99.8983371 81.3419826,101.416989 84.826,103.695 C88.3100174,105.973011 91.1463224,109.211312 93.335,113.41 C95.5236776,117.608688 96.618,123.191965 96.618,130.16 L96.618,132.84 C96.618,139.808035 95.5236776,145.413645 93.335,149.657 C91.1463224,153.900355 88.3100174,157.160989 84.826,159.439 C81.3419826,161.717011 77.4560214,163.21333 73.168,163.928 C68.8799786,164.64267 64.5920214,165 60.304,165 L47.708,165 L47.708,202.52 Z M181.44,98 L181.44,202.52 L159.732,202.52 L159.732,158.568 L129.314,158.568 L129.314,202.52 L107.606,202.52 L107.606,98 L129.314,98 L129.314,139.808 L159.732,139.808 L159.732,98 L181.44,98 Z M272.962,202.52 L250.048,202.52 L216.28,137.664 L216.95,158.702 L216.95,202.52 L196.448,202.52 L196.448,98 L219.362,98 L252.996,162.856 L252.326,141.818 L252.326,98 L272.962,98 L272.962,202.52 Z" id="path-1"></path>
        <filter x="-50%" y="-50%" width="200%" height="200%" filterUnits="objectBoundingBox" id="filter-2">
            <feOffset dx="0" dy="20" in="SourceAlpha" result="shadowOffsetOuter1"></feOffset>
            <feGaussianBlur stdDeviation="15" in="shadowOffsetOuter1" result="shadowBlurOuter1"></feGaussianBlur>
            <feColorMatrix values="0 0 0 0 0   0 0 0 0 0   0 0 0 0 0  0 0 0 0.5 0" type="matrix" in="shadowBlurOuter1"></feColorMatrix>
        </filter>
    </defs>
    <g id="Page-1" stroke="none" stroke-width="1" fill="none" fill-rule="evenodd">
        <g id="-PHN-logo" transform="translate(0.000000, -88.000000)">
            <g id="PHN">
                <use fill="black" fill-opacity="1" filter="url(#filter-2)" xlink:href="#path-1"></use>
                <use fill="#FFFFFF" fill-rule="evenodd" xlink:href="#path-1"></use>
            </g>
        </g>
    </g>
</svg>